<svg width="144" height="23" viewBox="0 0 144 23" fill="none" xmlns="http://www.w3.org/2000/svg">
<path d="M23.3355 8.43328H14.4245L11.6721 0L8.91102 8.43327L0 8.42472L7.21655 13.6421L4.45551 22.0668L11.6721 16.858L18.88 22.0668L16.1276 13.6421L23.3355 8.43327V8.43328Z" fill="#3692FE"/>
<path d="M16.7467 15.5494L16.1274 13.6421L11.6719 16.858L16.7467 15.5494Z" fill="#005128"/>
<path d="M53.3355 8.43328H44.4245L41.6721 0L38.911 8.43327L30 8.42472L37.2165 13.6421L34.4555 22.0668L41.6721 16.858L48.88 22.0668L46.1276 13.6421L53.3355 8.43327V8.43328Z" fill="#3692FE"/>
<path d="M46.7467 15.5494L46.1274 13.6421L41.6719 16.858L46.7467 15.5494Z" fill="#005128"/>
<path d="M83.3355 8.43328H74.4245L71.6721 0L68.911 8.43327L60 8.42472L67.2165 13.6421L64.4555 22.0668L71.6721 16.858L78.88 22.0668L76.1276 13.6421L83.3355 8.43327V8.43328Z" fill="#3692FE"/>
<path d="M76.7467 15.5494L76.1274 13.6421L71.6719 16.858L76.7467 15.5494Z" fill="#005128"/>
<path d="M113.336 8.43328H104.424L101.672 0L98.911 8.43327L90 8.42472L97.2165 13.6421L94.4555 22.0668L101.672 16.858L108.88 22.0668L106.128 13.6421L113.336 8.43327V8.43328Z" fill="#3692FE"/>
<path d="M106.747 15.5494L106.127 13.6421L101.672 16.858L106.747 15.5494Z" fill="#005128"/>
<path d="M143.336 8.43328H134.424L131.672 0L128.911 8.43327L120 8.42472L127.217 13.6421L124.456 22.0668L131.672 16.858L138.88 22.0668L136.128 13.6421L143.336 8.43327V8.43328Z" fill="#3692FE"/>
<path d="M136.747 15.5494L136.127 13.6421L131.672 16.858L136.747 15.5494Z" fill="#005128"/>
</svg>
