<?xml version="1.0" encoding="UTF-8" standalone="no"?>
<svg
   width="477"
   height="463"
   viewBox="0 0 477 463"
   fill="none"
   version="1.1"
   id="svg60"
   sodipodi:docname="index-img-3.svg"
   inkscape:version="1.1.2 (b8e25be833, 2022-02-05)"
   xmlns:inkscape="http://www.inkscape.org/namespaces/inkscape"
   xmlns:sodipodi="http://sodipodi.sourceforge.net/DTD/sodipodi-0.dtd"
   xmlns="http://www.w3.org/2000/svg"
   xmlns:svg="http://www.w3.org/2000/svg">
  <defs
     id="defs64" />
  <sodipodi:namedview
     id="namedview62"
     pagecolor="#ffffff"
     bordercolor="#666666"
     borderopacity="1.0"
     inkscape:pageshadow="2"
     inkscape:pageopacity="0.0"
     inkscape:pagecheckerboard="0"
     showgrid="false"
     inkscape:zoom="1.7948164"
     inkscape:cx="238.74308"
     inkscape:cy="231.77858"
     inkscape:window-width="1920"
     inkscape:window-height="1017"
     inkscape:window-x="-8"
     inkscape:window-y="-8"
     inkscape:window-maximized="1"
     inkscape:current-layer="svg60" />
  <path
     d="M303 115H123L123 348.5C123 373.353 163.294 393.5 213 393.5C262.706 393.5 303 373.353 303 348.5V115Z"
     fill="#D3E8F8"
     id="path2" />
  <g
     opacity="0.6"
     id="g16">
    <path
       d="M124 196C131.75 213.925 168.426 227.5 212.5 227.5C256.574 227.5 293.25 213.925 301 196"
       stroke="white"
       stroke-width="3"
       stroke-linecap="round"
       stroke-linejoin="round"
       id="path4" />
    <path
       d="M124 164C131.75 181.925 168.426 195.5 212.5 195.5C256.574 195.5 293.25 181.925 301 164"
       stroke="white"
       stroke-width="3"
       stroke-linecap="round"
       stroke-linejoin="round"
       id="path6" />
    <path
       d="M124 228C131.75 245.925 168.426 259.5 212.5 259.5C256.574 259.5 293.25 245.925 301 228"
       stroke="white"
       stroke-width="3"
       stroke-linecap="round"
       stroke-linejoin="round"
       id="path8" />
    <path
       d="M124 260C131.75 277.925 168.426 291.5 212.5 291.5C256.574 291.5 293.25 277.925 301 260"
       stroke="white"
       stroke-width="3"
       stroke-linecap="round"
       stroke-linejoin="round"
       id="path10" />
    <path
       d="M124 292C131.75 309.925 168.426 323.5 212.5 323.5C256.574 323.5 293.25 309.925 301 292"
       stroke="white"
       stroke-width="3"
       stroke-linecap="round"
       stroke-linejoin="round"
       id="path12" />
    <path
       d="M124 324C131.75 341.925 168.426 355.5 212.5 355.5C256.574 355.5 293.25 341.925 301 324"
       stroke="white"
       stroke-width="3"
       stroke-linecap="round"
       stroke-linejoin="round"
       id="path14" />
  </g>
  <path
     d="M180 322H0V418C0 442.853 40.2943 463 90 463C139.706 463 180 442.853 180 418V322Z"
     fill="#FAAAC6"
     id="path18" />
  <path
     d="M90 366C139.706 366 180 345.853 180 321C180 296.147 139.706 276 90 276C40.2944 276 0 296.147 0 321C0 345.853 40.2944 366 90 366Z"
     fill="#E22D6E"
     id="path24" />
  <path
     d="M149.131 307.677C144.026 305.892 138.567 303.989 133.226 302.1C133.108 302.056 132.99 302.012 132.842 301.968C132.252 301.746 131.573 301.51 130.747 301.377L130.688 301.363C116.406 299.636 101.888 297.866 87.8423 296.154C75.0948 294.605 62.3767 293.056 49.6292 291.507C49.3046 291.463 48.98 291.418 48.6259 291.374C47.4751 291.212 46.1472 291.035 44.7308 291.123C44.3177 291.153 43.9636 291.227 43.639 291.33L43.2849 291.477C42.7243 291.743 42.4292 292.082 42.2816 292.274L42.1931 292.392V293.071L42.2521 293.174C50.3079 304.461 58.5702 315.91 66.5374 326.99C72.6751 335.518 79.0489 344.356 85.2751 353.031C85.6587 353.622 86.7505 354.005 88.1079 354.064H88.403C89.6718 354.064 90.7931 353.754 91.3538 353.253L114.724 336.212C120.419 332.066 126.114 327.905 131.81 323.759C134.141 322.063 136.472 320.351 138.803 318.654C142.639 315.851 146.593 312.959 150.518 310.141L150.724 309.994V309.817C150.813 309.3 150.842 308.238 149.131 307.677ZM121.747 313.889C116.259 315.32 110.652 316.795 105.016 318.256C108.291 316.5 111.596 314.73 114.872 312.974C118.973 310.761 123.252 308.474 127.442 306.231L127.531 306.187C127.885 305.951 128.328 305.73 128.8 305.494C129.124 305.331 129.478 305.169 129.803 304.977C131.987 305.73 134.2 306.497 136.324 307.249C137.859 307.795 139.423 308.341 141.016 308.887C134.524 310.54 128.032 312.236 121.747 313.889ZM107.642 313.181C103.423 315.468 99.0554 317.813 94.7177 320.13C86.3079 315.025 77.721 309.846 69.3997 304.845C65.6226 302.572 61.8161 300.286 58.039 298.013L58.0095 297.999C57.1538 297.512 56.3275 296.981 55.5013 296.479C54.9702 296.14 54.4095 295.815 53.8489 295.476C57.2718 295.918 60.7243 296.331 64.1177 296.73C67.098 297.084 70.1964 297.453 73.2357 297.836C90.3505 299.917 107.495 301.997 124.609 304.077C118.914 307.117 113.19 310.2 107.642 313.181ZM92.7997 341.936C93.1243 340.387 93.4784 338.794 93.7734 337.23C94.039 335.976 94.3046 334.692 94.5702 333.468C94.9833 331.505 95.4259 329.469 95.78 327.477L95.8685 327.123C96.1636 325.854 96.4587 324.541 96.6357 323.228C96.9603 323.14 97.3144 323.051 97.698 322.977C98.1407 322.874 98.5833 322.786 99.0259 322.653C105.842 320.868 112.659 319.082 119.505 317.312C126.321 315.541 133.314 313.712 140.249 311.897C133.934 316.471 127.59 321.089 121.452 325.589C116.17 329.44 110.741 333.408 105.341 337.318C103.216 338.882 101.003 340.476 98.9079 342.01C96.5472 343.722 94.1275 345.477 91.7669 347.233C92.062 345.463 92.4161 343.677 92.7997 341.936ZM51.6652 298.958C51.2816 298.427 50.8685 297.881 50.5144 297.364C58.4816 302.174 66.5079 307.013 74.3275 311.705C78.3702 314.14 82.4128 316.559 86.4554 319.008C87.2521 319.466 88.0489 319.953 88.8161 320.425C89.8193 321.03 90.8226 321.664 91.9144 322.269C91.5603 323.789 91.2652 325.323 90.9407 326.799C90.7341 327.831 90.5275 328.864 90.2915 329.912V329.927C90.2029 330.59 90.0259 331.254 89.8784 331.904C89.6718 332.804 89.1997 334.84 89.1997 334.84L89.1702 334.943C88.639 337.923 87.9898 340.933 87.3702 343.854C87.1046 345.064 86.8685 346.304 86.6029 347.543C86.4554 347.322 86.2784 347.1 86.1308 346.894C85.6882 346.304 85.2456 345.684 84.8325 345.079L81.6751 340.697C71.6718 326.784 61.6685 312.886 51.6652 298.958Z"
     fill="white"
     id="path26" />
  <path
     d="M303 119C303 143.853 262.706 164 213 164C163.294 164 123 143.853 123 119C123 94.1472 163.294 74 213 74C262.706 74 303 94.1472 303 119Z"
     fill="#3692FE"
     id="path28" />
  <path
     fill-rule="evenodd"
     clip-rule="evenodd"
     d="M202.115 107.741C202.793 103.522 203.84 99.7409 205.16 96.6204C206.369 93.7622 207.791 91.4948 209.326 89.9586C210.096 89.1892 210.859 88.6389 211.58 88.29C212.296 87.9433 212.87 87.8412 213.309 87.8412C213.749 87.8412 214.323 87.9433 215.039 88.29C215.761 88.6389 216.523 89.1892 217.292 89.9586C218.828 91.4948 220.25 93.7622 221.459 96.6204C222.793 99.7749 223.849 103.604 224.526 107.879C220.974 108.727 217.314 109.648 213.585 110.637C209.673 109.595 205.835 108.628 202.115 107.741ZM199.405 107.105C191.981 105.388 185.092 104.013 179.118 103.044C173.384 102.114 168.42 101.545 164.603 101.419C162.698 101.356 160.998 101.4 159.601 101.589C158.198 101.78 156.972 102.136 156.262 102.74C155.552 103.345 155.536 104.045 155.902 104.737C156.266 105.426 157.037 106.172 158.1 106.952C160.015 108.356 163.024 109.976 166.887 111.724C166.268 112.689 167.069 113.769 168.925 114.296C170.265 114.676 171.837 114.678 173.132 114.37C176.853 115.857 181.08 117.412 185.717 118.993C178.713 121.37 172.625 123.691 167.784 125.814C163.278 127.789 159.794 129.617 157.664 131.179C156.601 131.958 155.829 132.704 155.465 133.393C155.099 134.085 155.114 134.785 155.824 135.389C156.534 135.994 157.76 136.35 159.163 136.541C160.56 136.73 162.26 136.775 164.165 136.712C167.982 136.586 172.946 136.018 178.68 135.088C184.773 134.1 191.817 132.691 199.41 130.927C199.876 133.672 200.499 136.231 201.254 138.544C200.063 138.941 199.281 139.611 199.281 140.371C199.281 141.425 200.783 142.306 202.792 142.525C203.942 145.043 205.291 147.134 206.808 148.651C207.65 149.493 208.579 150.194 209.611 150.694C210.648 151.196 211.889 151.539 213.309 151.539C214.73 151.539 215.971 151.196 217.008 150.694C218.04 150.194 218.969 149.493 219.811 148.651C221.498 146.964 222.978 144.567 224.206 141.662C225.508 138.583 226.544 134.893 227.232 130.794C234.871 132.572 241.958 133.991 248.084 134.986C253.818 135.916 258.782 136.485 262.598 136.611C264.504 136.674 266.204 136.63 267.601 136.44C269.003 136.25 270.23 135.893 270.94 135.289C271.65 134.685 271.666 133.985 271.3 133.292C270.936 132.603 270.165 131.857 269.102 131.078C266.973 129.516 263.49 127.688 258.984 125.712C254.215 123.62 248.236 121.336 241.363 118.995C248.056 116.706 253.885 114.474 258.555 112.427C263.061 110.451 266.544 108.623 268.675 107.062C269.738 106.283 270.51 105.537 270.874 104.848C271.24 104.155 271.224 103.455 270.514 102.851C269.804 102.247 268.578 101.89 267.175 101.7C265.778 101.51 264.079 101.466 262.173 101.528C258.742 101.642 254.382 102.113 249.369 102.882C247.978 102.137 245.674 101.938 243.818 102.465C242.478 102.845 241.688 103.513 241.584 104.218C237.13 105.054 232.308 106.068 227.237 107.242C226.55 103.129 225.512 99.4268 224.206 96.3399C222.978 93.4345 221.498 91.0378 219.811 89.3507C218.969 88.5085 218.04 87.8073 217.008 87.3077C215.971 86.8058 214.73 86.4624 213.309 86.4624C211.889 86.4624 210.648 86.8058 209.611 87.3077C208.579 87.8073 207.65 88.5085 206.808 89.3507C205.121 91.0378 203.641 93.4345 202.413 96.3399C201.122 99.3924 200.092 103.047 199.405 107.105ZM238.885 118.161C245.866 115.796 251.91 113.493 256.687 111.398C261.12 109.455 264.405 107.716 266.344 106.294C267.315 105.582 267.904 104.982 268.158 104.501C268.411 104.023 268.304 103.727 268.084 103.54C267.865 103.353 267.397 103.16 266.428 103.029C265.453 102.896 264.102 102.847 262.361 102.904C259.303 103.005 255.292 103.426 250.529 104.149C250.704 104.987 249.888 105.837 248.307 106.286C246.219 106.878 243.565 106.552 242.28 105.563C237.701 106.428 232.718 107.485 227.466 108.715C227.743 110.648 227.944 112.663 228.061 114.74C231.845 115.88 235.465 117.025 238.885 118.161ZM228.136 116.383C230.994 117.255 233.75 118.129 236.387 118.997C233.752 119.868 230.996 120.746 228.135 121.621C228.165 120.757 228.18 119.883 228.18 119.001C228.18 118.12 228.165 117.246 228.136 116.383ZM225.201 113.889C225.095 112.339 224.941 110.827 224.743 109.362C222.058 110.009 219.311 110.699 216.52 111.429C218.018 111.838 219.525 112.257 221.039 112.687C222.444 113.086 223.833 113.487 225.201 113.889ZM213.583 112.207C215.583 112.746 217.603 113.304 219.635 113.881C221.558 114.427 223.446 114.976 225.295 115.526C225.347 116.667 225.374 117.826 225.374 119.001C225.374 120.177 225.347 121.338 225.295 122.481C223.307 123.075 221.275 123.667 219.202 124.255C217.315 124.79 215.439 125.309 213.579 125.812C211.592 125.276 209.586 124.722 207.567 124.149C205.439 123.545 203.354 122.937 201.318 122.327C201.269 121.234 201.245 120.125 201.245 119.001C201.245 117.879 201.269 116.77 201.317 115.678C203.217 115.112 205.159 114.547 207.137 113.986C209.303 113.371 211.454 112.778 213.583 112.207ZM210.648 111.426C209.02 111.869 207.381 112.325 205.734 112.792C204.272 113.207 202.829 113.624 201.408 114.042C201.518 112.389 201.681 110.779 201.894 109.222C204.749 109.91 207.673 110.646 210.648 111.426ZM198.479 121.467C198.452 120.653 198.439 119.831 198.439 119.001C198.439 118.171 198.452 117.349 198.479 116.535C195.791 117.356 193.195 118.178 190.703 118.996C193.193 119.816 195.79 120.642 198.479 121.467ZM188.197 119.828C191.474 120.918 194.935 122.017 198.55 123.111C198.668 125.301 198.881 127.423 199.177 129.455C191.305 131.304 184.028 132.769 177.801 133.779C172.16 134.694 167.453 135.222 163.977 135.337C162.237 135.394 160.886 135.344 159.91 135.212C158.941 135.08 158.474 134.887 158.254 134.7C158.035 134.513 157.928 134.218 158.18 133.739C158.435 133.258 159.023 132.658 159.994 131.946C161.934 130.525 165.219 128.786 169.652 126.842C174.598 124.674 180.901 122.282 188.197 119.828ZM188.2 118.16C191.479 117.075 194.939 115.981 198.549 114.893C198.668 112.712 198.879 110.599 199.173 108.576C191.47 106.775 184.348 105.345 178.238 104.353C172.597 103.438 167.89 102.909 164.415 102.794C162.674 102.737 161.323 102.786 160.348 102.918C159.378 103.05 158.911 103.243 158.692 103.43C158.472 103.617 158.365 103.912 158.617 104.391C158.872 104.872 159.46 105.472 160.431 106.184C162.137 107.435 164.884 108.932 168.539 110.597C169.929 110.104 171.835 110.026 173.416 110.475C175.504 111.068 176.257 112.36 175.156 113.401C178.99 114.927 183.374 116.529 188.2 118.16ZM201.408 123.965C202.968 124.427 204.554 124.886 206.163 125.343C207.667 125.769 209.165 126.186 210.653 126.593C207.679 127.376 204.754 128.115 201.898 128.806C201.683 127.243 201.519 125.626 201.408 123.965ZM213.582 127.383C209.674 128.427 205.839 129.397 202.119 130.288C202.579 133.137 203.206 135.787 203.973 138.168C206.358 138.22 208.259 139.187 208.259 140.371C208.259 141.269 207.169 142.041 205.605 142.386C206.712 144.774 207.975 146.691 209.326 148.043C210.096 148.813 210.859 149.363 211.58 149.712C212.296 150.059 212.87 150.161 213.309 150.161C213.749 150.161 214.323 150.059 215.039 149.712C215.761 149.363 216.523 148.813 217.292 148.043C218.828 146.507 220.25 144.239 221.459 141.381C222.79 138.234 223.844 134.416 224.521 130.153C220.967 129.301 217.308 128.376 213.582 127.383ZM227.461 129.32C227.741 127.378 227.943 125.353 228.061 123.266C231.849 122.121 235.47 120.971 238.888 119.831C246.049 122.248 252.242 124.603 257.116 126.741C261.548 128.684 264.832 130.424 266.771 131.846C267.742 132.558 268.331 133.158 268.585 133.639C268.837 134.117 268.73 134.413 268.51 134.599C268.291 134.786 267.823 134.979 266.854 135.111C265.879 135.243 264.528 135.293 262.787 135.235C259.312 135.12 254.605 134.591 248.963 133.676C242.704 132.661 235.382 131.184 227.461 129.32ZM224.74 128.67C222.05 128.018 219.301 127.325 216.507 126.591C217.867 126.219 219.233 125.838 220.604 125.449C222.159 125.008 223.692 124.564 225.201 124.119C225.094 125.678 224.939 127.198 224.74 128.67ZM221.166 119.139C221.166 121.271 217.648 122.999 213.309 122.999C208.971 122.999 205.453 121.271 205.453 119.139C205.453 117.007 208.971 115.278 213.309 115.278C217.648 115.278 221.166 117.007 221.166 119.139Z"
     fill="white"
     id="path30" />
  <g
     opacity="0.6"
     id="g36">
    <path
       d="M2 368C9.75042 385.925 46.4258 399.5 90.5 399.5C134.574 399.5 171.25 385.925 179 368"
       stroke="white"
       stroke-width="3"
       stroke-linecap="round"
       stroke-linejoin="round"
       id="path32" />
    <path
       d="M2 400C9.75042 417.925 46.4258 431.5 90.5 431.5C134.574 431.5 171.25 417.925 179 400"
       stroke="white"
       stroke-width="3"
       stroke-linecap="round"
       stroke-linejoin="round"
       id="path34" />
  </g>
  <path
     d="M476 292H296L296 417.5C296 442.353 336.294 462.5 386 462.5C435.706 462.5 476 442.353 476 417.5V292Z"
     fill="#C2ECDD"
     id="path42" />
  <g
     opacity="0.5"
     id="g50">
    <path
       d="M298 332C305.75 349.925 342.426 363.5 386.5 363.5C430.574 363.5 467.25 349.925 475 332"
       stroke="white"
       stroke-width="3"
       stroke-linecap="round"
       stroke-linejoin="round"
       id="path44" />
    <path
       d="M298 364C305.75 381.925 342.426 395.5 386.5 395.5C430.574 395.5 467.25 381.925 475 364"
       stroke="white"
       stroke-width="3"
       stroke-linecap="round"
       stroke-linejoin="round"
       id="path46" />
    <path
       d="M298 396C305.75 413.925 342.426 427.5 386.5 427.5C430.574 427.5 467.25 413.925 475 396"
       stroke="white"
       stroke-width="3"
       stroke-linecap="round"
       stroke-linejoin="round"
       id="path48" />
  </g>
  <ellipse
     cx="386"
     cy="288"
     rx="90"
     ry="45"
     fill="#5BC7A0"
     id="ellipse56" />
  <path
     d="M397.897 315C390.075 315 384.373 314.092 380.793 312.219C377.212 310.345 375.481 308.385 375.481 306.222C375.481 305.459 375.772 304.783 376.453 304.252C377.037 303.721 377.893 303.296 378.964 303.006C380.034 302.717 381.377 302.524 382.933 302.524C384.49 302.524 385.833 302.668 386.903 303.006C387.973 303.296 388.829 303.721 389.413 304.252C389.997 304.783 390.386 305.45 390.386 306.222C390.386 307.178 389.9 307.951 389.024 308.52C388.148 309.1 387 309.525 385.735 309.718C386.806 310.432 388.538 310.964 390.853 311.301C393.169 311.639 395.484 311.784 397.82 311.784C401.108 311.784 404.008 311.35 406.615 310.49C409.223 309.631 411.149 308.337 412.414 306.657C413.679 304.976 414.243 303.064 414.243 300.901C414.243 298.555 413.562 296.585 412.219 294.953C410.857 293.273 408.931 292.027 406.323 291.264C403.716 290.453 400.914 290.067 397.82 290.067C395.796 290.067 393.383 290.501 390.386 291.312L384.938 292.606V291.264L409.573 274.964H375.481V291.892C375.481 293.282 376.064 294.431 377.31 295.349C378.575 296.256 380.501 296.691 383.011 296.691C385.035 296.691 386.884 296.353 388.713 295.687C390.542 295.011 392.099 294.2 393.441 293.292C393.636 293.099 393.83 292.954 394.025 292.906C394.317 292.809 394.512 292.761 394.803 292.761C395.29 292.761 395.776 292.857 396.438 293.099C397.022 293.437 397.314 293.813 397.314 294.248C397.314 294.441 397.119 294.731 397.022 295.107C395.66 296.691 393.733 297.888 391.223 298.7C388.713 299.511 386.008 299.945 383.011 299.945C375.578 299.945 370.538 299.231 367.639 297.792C364.836 296.353 363.396 294.383 363.396 291.94V274.964H346V271.796H363.494V264.602L359.524 262.632V261H371.122L375.461 262.101V271.748L420.587 271.7L425.023 273.901L397.411 287.672C399.046 287.334 400.797 287.141 402.626 287.044C405.623 287.044 409.009 287.527 412.667 288.483C416.442 289.391 419.341 290.685 421.365 292.317C423.389 293.948 424.751 295.484 425.335 296.971C425.919 298.458 426.308 299.752 426.308 300.95C426.308 303.586 425.14 306.029 422.922 308.289C420.703 310.539 417.318 312.267 412.686 313.368C408.133 314.469 403.21 315 397.897 315Z"
     fill="white"
     id="path58" />
</svg>
