<?xml version="1.0" encoding="UTF-8" standalone="no"?>
<svg
   width="600"
   height="600"
   viewBox="0 0 600 600"
   fill="none"
   version="1.1"
   id="svg98"
   sodipodi:docname="index-img-1.svg"
   inkscape:version="1.1.2 (b8e25be833, 2022-02-05)"
   xmlns:inkscape="http://www.inkscape.org/namespaces/inkscape"
   xmlns:sodipodi="http://sodipodi.sourceforge.net/DTD/sodipodi-0.dtd"
   xmlns="http://www.w3.org/2000/svg"
   xmlns:svg="http://www.w3.org/2000/svg">
  <sodipodi:namedview
     id="namedview100"
     pagecolor="#ffffff"
     bordercolor="#666666"
     borderopacity="1.0"
     inkscape:pageshadow="2"
     inkscape:pageopacity="0.0"
     inkscape:pagecheckerboard="0"
     showgrid="false"
     inkscape:zoom="1.385"
     inkscape:cx="300"
     inkscape:cy="300.36101"
     inkscape:window-width="1920"
     inkscape:window-height="1017"
     inkscape:window-x="-8"
     inkscape:window-y="-8"
     inkscape:window-maximized="1"
     inkscape:current-layer="svg98" />
  <g
     opacity="0.5"
     id="g12">
    <circle
       opacity="0.5"
       cx="299.999"
       cy="300"
       r="166.87"
       stroke="#CDD1D6"
       stroke-width="2"
       id="circle2" />
    <circle
       opacity="0.4"
       cx="300.001"
       cy="300"
       r="212.357"
       stroke="#CDD1D6"
       stroke-width="2"
       id="circle4" />
    <circle
       opacity="0.32"
       cx="300.001"
       cy="300"
       r="255.679"
       stroke="#CDD1D6"
       stroke-width="2"
       id="circle6" />
    <circle
       opacity="0.16"
       cx="300"
       cy="300"
       r="299"
       stroke="#CDD1D6"
       stroke-width="2"
       id="circle8" />
    <circle
       opacity="0.8"
       cx="299.999"
       cy="300"
       r="122.466"
       stroke="#CDD1D6"
       stroke-width="2"
       id="circle10" />
  </g>
  <circle
     cx="297.833"
     cy="294.585"
     r="81.2274"
     fill="#113355"
     id="circle14" />
  <path
     d="M276.834 331.706L272.868 315.002L288.5 311.29"
     stroke="white"
     stroke-width="3"
     stroke-miterlimit="10"
     stroke-linecap="round"
     stroke-linejoin="round"
     id="path16" />
  <path
     d="M318.595 257.465L322.561 274.169L306.93 277.881"
     stroke="white"
     stroke-width="3"
     stroke-miterlimit="10"
     stroke-linecap="round"
     stroke-linejoin="round"
     id="path18" />
  <path
     d="M322.562 274.169C316.729 267.209 307.864 262.569 297.831 262.569C280.1 262.569 265.868 276.953 265.868 294.585"
     stroke="white"
     stroke-width="3"
     stroke-miterlimit="10"
     stroke-linecap="round"
     stroke-linejoin="round"
     id="path20" />
  <path
     d="M274.736 316.393C280.569 322.425 288.735 326.369 297.834 326.369C315.565 326.369 329.797 312.217 329.797 294.585"
     stroke="white"
     stroke-width="3"
     stroke-miterlimit="10"
     stroke-linecap="round"
     stroke-linejoin="round"
     id="path22" />
  <path
     d="M161.215 197.326C158.143 195.177 154.858 192.887 151.645 190.614C151.574 190.561 151.503 190.508 151.414 190.455C151.059 190.188 150.651 189.904 150.153 189.744L150.118 189.727C141.525 187.649 132.789 185.519 124.338 183.459C116.668 181.595 109.016 179.731 101.346 177.867C101.151 177.813 100.955 177.76 100.742 177.707C100.05 177.511 99.2509 177.298 98.3987 177.405C98.1502 177.44 97.9371 177.529 97.7418 177.653L97.5287 177.831C97.1914 178.151 97.0139 178.559 96.9251 178.79L96.8718 178.932V179.749L96.9073 179.873C101.754 193.455 106.726 207.233 111.519 220.566C115.212 230.829 119.047 241.464 122.794 251.903C123.024 252.614 123.681 253.075 124.498 253.146H124.676C125.439 253.146 126.114 252.773 126.451 252.17L140.513 231.663C143.939 226.674 147.366 221.667 150.793 216.678C152.195 214.636 153.598 212.577 155 210.535C157.309 207.162 159.688 203.682 162.049 200.291L162.173 200.113V199.9C162.227 199.279 162.244 198 161.215 197.326ZM144.738 204.8C141.436 206.523 138.063 208.298 134.671 210.056C136.642 207.943 138.631 205.812 140.601 203.7C143.069 201.036 145.644 198.284 148.165 195.586L148.218 195.532C148.431 195.248 148.698 194.982 148.982 194.698C149.177 194.503 149.39 194.307 149.585 194.077C150.899 194.982 152.231 195.905 153.509 196.811C154.432 197.468 155.373 198.125 156.332 198.781C152.426 200.77 148.52 202.812 144.738 204.8ZM136.252 203.948C133.713 206.7 131.085 209.523 128.475 212.311C123.415 206.167 118.248 199.936 113.242 193.917C110.969 191.183 108.679 188.431 106.406 185.696L106.388 185.679C105.873 185.093 105.376 184.453 104.879 183.85C104.56 183.441 104.222 183.051 103.885 182.643C105.944 183.175 108.022 183.672 110.064 184.152C111.857 184.578 113.721 185.022 115.55 185.483C125.847 187.987 136.163 190.49 146.461 192.993C143.034 196.651 139.589 200.362 136.252 203.948ZM127.321 238.552C127.516 236.688 127.729 234.77 127.907 232.888C128.067 231.379 128.227 229.834 128.386 228.361C128.635 225.999 128.901 223.549 129.114 221.152L129.167 220.726C129.345 219.199 129.523 217.619 129.629 216.039C129.824 215.932 130.037 215.826 130.268 215.737C130.535 215.613 130.801 215.506 131.067 215.347C135.169 213.198 139.27 211.05 143.389 208.919C147.49 206.789 151.698 204.587 155.87 202.403C152.071 207.907 148.254 213.465 144.561 218.88C141.383 223.514 138.116 228.29 134.867 232.995C133.588 234.877 132.257 236.794 130.996 238.641C129.576 240.7 128.12 242.813 126.7 244.926C126.877 242.795 127.09 240.647 127.321 238.552ZM102.571 186.833C102.34 186.193 102.092 185.537 101.879 184.915C106.672 190.703 111.502 196.527 116.207 202.173C118.639 205.102 121.071 208.014 123.504 210.961C123.983 211.512 124.463 212.097 124.924 212.666C125.528 213.394 126.131 214.157 126.788 214.885C126.575 216.714 126.398 218.56 126.202 220.336C126.078 221.578 125.954 222.821 125.812 224.082V224.1C125.759 224.899 125.652 225.698 125.563 226.479C125.439 227.562 125.155 230.012 125.155 230.012L125.137 230.136C124.818 233.723 124.427 237.345 124.054 240.86C123.894 242.316 123.752 243.807 123.593 245.299C123.504 245.032 123.397 244.766 123.308 244.517C123.042 243.807 122.776 243.062 122.527 242.334L120.628 237.06C114.609 220.318 108.59 203.593 102.571 186.833Z"
     fill="white"
     id="path24" />
  <path
     fill-rule="evenodd"
     clip-rule="evenodd"
     d="M124.804 444.584C154.715 444.584 178.964 420.336 178.964 390.424C178.964 360.512 154.715 336.264 124.804 336.264C94.8919 336.264 70.6436 360.512 70.6436 390.424C70.6436 420.336 94.8919 444.584 124.804 444.584ZM120.085 388.338C120.935 389.225 121.908 389.92 122.951 390.424C121.908 390.927 120.935 391.622 120.085 392.509L95.7137 417.92H104.824L122.995 399.186C125.352 396.756 129.252 396.756 131.609 399.186L149.78 417.92H158.89L134.519 392.509C133.669 391.622 132.696 390.927 131.653 390.424C132.696 389.92 133.669 389.225 134.519 388.338L158.89 362.927H149.78L131.609 381.661C129.252 384.091 125.352 384.091 122.995 381.661L104.824 362.927H95.7137L120.085 388.338Z"
     fill="url(#paint0_linear)"
     id="path26" />
  <path
     fill-rule="evenodd"
     clip-rule="evenodd"
     d="M467.661 444.584C497.573 444.584 521.821 420.336 521.821 390.424C521.821 360.512 497.573 336.264 467.661 336.264C437.749 336.264 413.501 360.512 413.501 390.424C413.501 420.336 437.749 444.584 467.661 444.584ZM464.435 419.573C466.59 421.827 470.021 422.92 474.728 422.92C477.925 422.92 480.888 422.281 483.628 420.956C486.415 419.631 488.452 417.55 489.787 414.842C491.122 412.123 491.825 409.182 491.825 406.009C491.825 404.568 491.591 403.011 491.239 401.221C490.888 399.431 490.068 397.583 488.851 395.619C487.633 393.655 485.888 392.097 483.616 391.005C481.415 389.854 479.377 389.273 477.574 389.273C476.473 389.389 475.419 389.622 474.435 390.029L491.052 373.455L488.382 370.805L461.227 370.863V359.253L458.615 357.928H451.636V359.892L454.025 362.263V370.922H443.497V374.734H453.966V395.166C453.966 398.106 454.833 400.477 456.519 402.209C458.264 403.941 461.297 404.801 465.77 404.801C467.573 404.801 469.201 404.278 470.712 403.301C472.222 402.325 473.382 400.884 474.201 398.978C474.229 398.767 474.269 398.578 474.304 398.413C474.344 398.225 474.377 398.068 474.377 397.944C474.377 397.421 474.201 396.967 473.85 396.56C473.452 396.27 473.159 396.154 472.866 396.154C472.691 396.154 472.574 396.212 472.398 396.328C472.281 396.386 472.164 396.56 472.047 396.793C471.239 397.885 470.302 398.862 469.201 399.675C468.1 400.477 466.988 400.884 465.77 400.884C464.259 400.884 463.1 400.361 462.339 399.268C461.59 398.164 461.238 396.781 461.238 395.108V374.734H481.754L466.929 394.352V395.968L470.208 394.41C472.012 393.434 473.464 392.911 474.681 392.911C476.543 392.911 478.23 393.376 479.799 394.352C481.368 395.27 482.527 396.77 483.347 398.792C484.155 400.756 484.565 403.127 484.565 405.951C484.565 408.555 484.225 410.856 483.464 412.878C482.703 414.901 481.544 416.458 479.974 417.492C478.405 418.527 476.66 419.05 474.681 419.05C473.276 419.05 471.883 418.875 470.489 418.469C469.096 418.062 468.054 417.423 467.409 416.563C468.171 416.33 468.861 415.819 469.388 415.121C469.915 414.436 470.208 413.506 470.208 412.355C470.208 411.425 469.974 410.623 469.623 409.984C469.271 409.345 468.756 408.834 468.112 408.485C467.468 408.078 466.66 407.904 465.723 407.904C464.786 407.904 463.978 408.136 463.334 408.485C462.69 408.834 462.175 409.345 461.824 409.984C461.414 410.623 461.238 411.437 461.238 412.355C461.238 414.959 462.28 417.318 464.435 419.573Z"
     fill="url(#paint1_linear)"
     id="path28" />
  <path
     fill-rule="evenodd"
     clip-rule="evenodd"
     d="M467.655 251.213L443.989 218.453L467.655 232.186V232.189L491.334 218.453L467.655 251.213ZM467.655 205.005L491.318 215.572L467.655 229.312L443.989 215.572L467.655 205.005ZM467.655 175.476L491.318 214.045L467.655 203.472L443.989 214.045L467.655 175.476ZM467.661 159.184C437.749 159.184 413.501 183.432 413.501 213.344C413.501 243.255 437.749 267.504 467.661 267.504C497.573 267.504 521.821 243.255 521.821 213.344C521.821 183.432 497.573 159.184 467.661 159.184Z"
     fill="url(#paint2_linear)"
     id="path30" />
  <path
     fill-rule="evenodd"
     clip-rule="evenodd"
     d="M295.722 475.44L298.925 462.595C299.292 462.686 299.742 462.786 300.251 462.899C304.783 463.902 314.062 465.956 312.364 472.77C310.701 479.431 301.155 476.884 296.778 475.716C296.38 475.61 296.025 475.515 295.722 475.44ZM290.575 496.084L294.108 481.922C294.546 482.031 295.082 482.152 295.689 482.288C301.118 483.506 312.244 486.003 310.375 493.497C308.551 500.827 297.077 497.796 291.828 496.409C291.356 496.285 290.935 496.173 290.575 496.084ZM325.076 472.885C324.231 478.596 321.065 481.362 316.861 482.331C322.633 485.336 325.571 489.944 322.773 497.933C319.3 507.855 311.051 508.692 300.081 506.617L297.418 517.286L290.985 515.683L293.613 505.156C291.945 504.742 290.241 504.302 288.486 503.826L285.849 514.402L279.423 512.799L282.085 502.109C280.583 501.724 279.057 501.316 277.499 500.925L269.127 498.838L272.321 491.474C272.321 491.474 277.061 492.735 276.997 492.641C278.818 493.092 279.626 491.905 279.945 491.113L284.153 474.247C284.389 474.303 284.618 474.362 284.832 474.415C284.575 474.313 284.343 474.247 284.163 474.201L287.165 462.161C287.244 460.794 286.773 459.07 284.167 458.419C284.268 458.351 279.495 457.257 279.495 457.257L281.206 450.386L290.078 452.601L290.071 452.634C291.405 452.966 292.779 453.281 294.179 453.6L296.815 443.035L303.245 444.638L300.662 454.996C302.388 455.39 304.125 455.788 305.816 456.209L308.381 445.919L314.815 447.522L312.18 458.091C320.302 460.889 326.243 465.083 325.076 472.885ZM297.174 426C267.263 426 243.014 450.248 243.014 480.16C243.014 510.072 267.263 534.32 297.174 534.32C327.086 534.32 351.334 510.072 351.334 480.16C351.334 450.248 327.086 426 297.174 426Z"
     fill="url(#paint3_linear)"
     id="path32" />
  <path
     d="M124.804 267.504C154.715 267.504 178.964 243.256 178.964 213.344C178.964 183.432 154.715 159.184 124.804 159.184C94.8919 159.184 70.6436 183.432 70.6436 213.344C70.6436 243.256 94.8919 267.504 124.804 267.504Z"
     fill="url(#paint4_linear)"
     id="path34" />
  <path
     d="M160.389 197.309C157.316 195.161 154.031 192.87 150.817 190.597C150.746 190.544 150.675 190.49 150.586 190.437C150.231 190.171 149.823 189.887 149.326 189.727L149.29 189.709C140.696 187.631 131.959 185.501 123.506 183.441C115.835 181.576 108.182 179.712 100.511 177.847C100.315 177.794 100.12 177.741 99.9068 177.687C99.2142 177.492 98.4151 177.279 97.5628 177.385C97.3142 177.421 97.1011 177.51 96.9058 177.634L96.6927 177.812C96.3553 178.131 96.1777 178.54 96.0889 178.77L96.0356 178.913V179.729L96.0712 179.854C100.919 193.438 105.891 207.218 110.686 220.554C114.379 230.817 118.215 241.454 121.961 251.896C122.192 252.606 122.849 253.067 123.666 253.139H123.844C124.607 253.139 125.282 252.766 125.62 252.162L139.683 231.652C143.111 226.662 146.538 221.655 149.965 216.665C151.368 214.623 152.771 212.563 154.173 210.521C156.482 207.147 158.861 203.666 161.223 200.275L161.347 200.097V199.884C161.401 199.263 161.418 197.984 160.389 197.309ZM143.91 204.785C140.607 206.508 137.233 208.283 133.841 210.041C135.812 207.928 137.801 205.797 139.772 203.684C142.24 201.021 144.815 198.268 147.337 195.569L147.39 195.516C147.603 195.232 147.87 194.965 148.154 194.681C148.349 194.486 148.562 194.29 148.757 194.06C150.071 194.965 151.403 195.889 152.682 196.794C153.605 197.451 154.546 198.108 155.505 198.765C151.599 200.754 147.692 202.796 143.91 204.785ZM135.422 203.933C132.882 206.685 130.254 209.509 127.644 212.296C122.583 206.152 117.416 199.92 112.408 193.9C110.135 191.165 107.844 188.413 105.571 185.678L105.554 185.66C105.039 185.074 104.541 184.435 104.044 183.831C103.725 183.423 103.387 183.032 103.05 182.624C105.11 183.157 107.187 183.654 109.229 184.133C111.023 184.559 112.887 185.003 114.716 185.465C125.016 187.969 135.333 190.473 145.632 192.976C142.205 196.634 138.76 200.346 135.422 203.933ZM126.49 238.542C126.685 236.677 126.898 234.76 127.076 232.877C127.235 231.368 127.395 229.823 127.555 228.349C127.804 225.987 128.07 223.537 128.283 221.14L128.336 220.713C128.514 219.186 128.692 217.606 128.798 216.026C128.993 215.919 129.207 215.812 129.437 215.724C129.704 215.599 129.97 215.493 130.236 215.333C134.338 213.184 138.44 211.036 142.56 208.905C146.662 206.774 150.871 204.572 155.044 202.388C151.243 207.893 147.426 213.451 143.732 218.867C140.553 223.501 137.286 228.278 134.037 232.984C132.758 234.866 131.426 236.784 130.165 238.631C128.745 240.691 127.289 242.804 125.868 244.917C126.046 242.786 126.259 240.637 126.49 238.542ZM101.736 186.815C101.505 186.175 101.256 185.518 101.043 184.897C105.838 190.686 110.668 196.51 115.373 202.157C117.806 205.087 120.239 207.999 122.672 210.947C123.151 211.497 123.631 212.083 124.092 212.652C124.696 213.38 125.3 214.143 125.957 214.871C125.744 216.7 125.566 218.547 125.371 220.323C125.247 221.566 125.122 222.809 124.98 224.07V224.087C124.927 224.886 124.82 225.686 124.732 226.467C124.607 227.55 124.323 230.001 124.323 230.001L124.305 230.125C123.986 233.712 123.595 237.334 123.222 240.85C123.062 242.307 122.92 243.798 122.761 245.29C122.672 245.023 122.565 244.757 122.476 244.508C122.21 243.798 121.944 243.052 121.695 242.324L119.795 237.05C113.775 220.305 107.756 203.578 101.736 186.815Z"
     fill="white"
     id="path36" />
  <g
     filter="url(#filter0_d)"
     id="g42">
    <rect
       x="133"
       y="24"
       width="335"
       height="100"
       rx="16"
       fill="url(#paint5_linear)"
       id="rect38" />
    <path
       d="M274 167.343L274 124L327 124L280.828 170.172C278.309 172.691 274 170.907 274 167.343Z"
       fill="url(#paint6_linear)"
       id="path40" />
  </g>
  <path
     d="m 244.582,78.9766 c -0.352,3.0078 -1.465,5.332 -3.34,6.9726 -1.862,1.6276 -4.342,2.4414 -7.441,2.4414 -3.36,0 -6.055,-1.2044 -8.086,-3.6133 -2.018,-2.4088 -3.027,-5.6315 -3.027,-9.6679 V 72.375 c 0,-2.6432 0.468,-4.9674 1.406,-6.9727 0.95,-2.0052 2.291,-3.5416 4.023,-4.6093 1.732,-1.0808 3.737,-1.6211 6.016,-1.6211 3.021,0 5.443,0.8463 7.265,2.539 1.823,1.6797 2.885,4.0105 3.184,6.9922 h -3.77 c -0.325,-2.2656 -1.035,-3.9062 -2.128,-4.9219 -1.081,-1.0156 -2.598,-1.5234 -4.551,-1.5234 -2.396,0 -4.278,0.8854 -5.645,2.6563 -1.354,1.7708 -2.031,4.2903 -2.031,7.5586 v 2.7539 c 0,3.0859 0.645,5.5403 1.934,7.3632 1.289,1.823 3.092,2.7344 5.41,2.7344 2.083,0 3.678,-0.4687 4.785,-1.4062 1.12,-0.9506 1.862,-2.5977 2.226,-4.9414 z M 262.199,88 c -0.208,-0.4167 -0.377,-1.1589 -0.508,-2.2266 -1.679,1.7448 -3.684,2.6172 -6.015,2.6172 -2.084,0 -3.796,-0.5859 -5.137,-1.7578 -1.328,-1.1849 -1.992,-2.6823 -1.992,-4.4922 0,-2.2005 0.833,-3.9062 2.5,-5.1172 1.68,-1.2239 4.036,-1.8359 7.07,-1.8359 h 3.516 v -1.6602 c 0,-1.263 -0.378,-2.2656 -1.133,-3.0078 -0.755,-0.7552 -1.868,-1.1328 -3.34,-1.1328 -1.289,0 -2.37,0.3255 -3.242,0.9766 -0.872,0.651 -1.309,1.4388 -1.309,2.3633 h -3.632 c 0,-1.0547 0.371,-2.0704 1.113,-3.0469 0.755,-0.9896 1.771,-1.7708 3.047,-2.3438 1.289,-0.5729 2.702,-0.8593 4.238,-0.8593 2.435,0 4.342,0.6119 5.723,1.8359 1.38,1.2109 2.096,2.8841 2.148,5.0195 v 9.7266 c 0,1.9401 0.247,3.4831 0.742,4.6289 V 88 Z m -5.996,-2.7539 c 1.133,0 2.207,-0.293 3.223,-0.8789 1.015,-0.586 1.751,-1.3477 2.207,-2.2852 v -4.3359 h -2.832 c -4.427,0 -6.641,1.2956 -6.641,3.8867 0,1.1328 0.378,2.0182 1.133,2.6563 0.755,0.638 1.725,0.957 2.91,0.957 z m 27.012,-2.8516 c 0,-0.9765 -0.371,-1.7317 -1.113,-2.2656 -0.73,-0.5469 -2.012,-1.0156 -3.848,-1.4062 -1.823,-0.3907 -3.275,-0.8594 -4.356,-1.4063 -1.067,-0.5469 -1.862,-1.1979 -2.382,-1.9531 -0.508,-0.7552 -0.762,-1.6537 -0.762,-2.6953 0,-1.7318 0.729,-3.1966 2.187,-4.3946 1.472,-1.1979 3.347,-1.7968 5.625,-1.7968 2.396,0 4.336,0.6185 5.821,1.8554 1.497,1.237 2.246,2.819 2.246,4.7461 H 283 c 0,-0.9896 -0.423,-1.8424 -1.27,-2.5586 -0.833,-0.7161 -1.888,-1.0742 -3.164,-1.0742 -1.315,0 -2.343,0.2865 -3.086,0.8594 -0.742,0.5729 -1.113,1.3216 -1.113,2.2461 0,0.8724 0.345,1.5299 1.035,1.9726 0.69,0.4427 1.934,0.8659 3.731,1.2696 1.81,0.4036 3.275,0.8854 4.394,1.4453 1.12,0.5599 1.947,1.237 2.481,2.0312 0.547,0.7813 0.82,1.7383 0.82,2.8711 0,1.888 -0.755,3.405 -2.266,4.5508 -1.51,1.1328 -3.47,1.6992 -5.878,1.6992 -1.693,0 -3.191,-0.2995 -4.493,-0.8984 -1.302,-0.599 -2.324,-1.4323 -3.066,-2.5 -0.729,-1.0807 -1.094,-2.2461 -1.094,-3.4961 h 3.614 c 0.065,1.2109 0.546,2.1745 1.445,2.8906 0.911,0.7031 2.109,1.0547 3.594,1.0547 1.367,0 2.461,-0.2734 3.281,-0.8203 0.833,-0.5599 1.25,-1.3021 1.25,-2.2266 z m 11.933,-12.9687 c 1.602,-1.9662 3.685,-2.9492 6.25,-2.9492 4.467,0 6.719,2.5195 6.758,7.5586 V 88 h -3.613 V 74.0156 c -0.013,-1.5234 -0.365,-2.6497 -1.055,-3.3789 -0.677,-0.7291 -1.738,-1.0937 -3.183,-1.0937 -1.172,0 -2.201,0.3125 -3.086,0.9375 -0.886,0.625 -1.576,1.4453 -2.071,2.4609 V 88 h -3.613 V 58 h 3.613 z m 36.309,8.2422 c 0,3.2291 -0.742,5.8268 -2.227,7.7929 -1.484,1.9532 -3.476,2.9297 -5.976,2.9297 -2.669,0 -4.733,-0.944 -6.192,-2.832 L 316.887,88 h -3.321 V 58 h 3.614 v 11.1914 c 1.458,-1.8099 3.47,-2.7148 6.035,-2.7148 2.565,0 4.577,0.97 6.035,2.9101 1.471,1.9401 2.207,4.5964 2.207,7.9688 z m -3.613,-0.4102 c 0,-2.4609 -0.476,-4.362 -1.426,-5.7031 -0.951,-1.3412 -2.318,-2.0117 -4.102,-2.0117 -2.382,0 -4.095,1.1067 -5.136,3.3203 v 9.1406 c 1.106,2.2135 2.832,3.3203 5.175,3.3203 1.732,0 3.08,-0.6706 4.043,-2.0117 0.964,-1.3411 1.446,-3.3594 1.446,-6.0547 z M 349.074,88 c -0.208,-0.4167 -0.377,-1.1589 -0.508,-2.2266 -1.679,1.7448 -3.684,2.6172 -6.015,2.6172 -2.084,0 -3.796,-0.5859 -5.137,-1.7578 -1.328,-1.1849 -1.992,-2.6823 -1.992,-4.4922 0,-2.2005 0.833,-3.9062 2.5,-5.1172 1.68,-1.2239 4.036,-1.8359 7.07,-1.8359 h 3.516 v -1.6602 c 0,-1.263 -0.378,-2.2656 -1.133,-3.0078 -0.755,-0.7552 -1.868,-1.1328 -3.34,-1.1328 -1.289,0 -2.37,0.3255 -3.242,0.9766 -0.872,0.651 -1.309,1.4388 -1.309,2.3633 h -3.632 c 0,-1.0547 0.371,-2.0704 1.113,-3.0469 0.755,-0.9896 1.771,-1.7708 3.047,-2.3438 1.289,-0.5729 2.702,-0.8593 4.238,-0.8593 2.435,0 4.342,0.6119 5.723,1.8359 1.38,1.2109 2.096,2.8841 2.148,5.0195 v 9.7266 c 0,1.9401 0.247,3.4831 0.742,4.6289 V 88 Z m -5.996,-2.7539 c 1.133,0 2.207,-0.293 3.223,-0.8789 1.015,-0.586 1.751,-1.3477 2.207,-2.2852 v -4.3359 h -2.832 c -4.427,0 -6.641,1.2956 -6.641,3.8867 0,1.1328 0.378,2.0182 1.133,2.6563 0.755,0.638 1.725,0.957 2.91,0.957 z m 23.184,0.1953 c 1.289,0 2.415,-0.3906 3.379,-1.1719 0.963,-0.7812 1.497,-1.7578 1.601,-2.9297 h 3.418 c -0.065,1.211 -0.482,2.3633 -1.25,3.4571 -0.768,1.0937 -1.797,1.9661 -3.086,2.6172 -1.276,0.651 -2.63,0.9765 -4.062,0.9765 -2.878,0 -5.17,-0.957 -6.875,-2.8711 -1.693,-1.9271 -2.539,-4.5573 -2.539,-7.8906 v -0.6055 c 0,-2.0573 0.377,-3.8867 1.132,-5.4882 0.756,-1.6016 1.836,-2.8451 3.243,-3.7305 1.419,-0.8854 3.092,-1.3281 5.019,-1.3281 2.37,0 4.336,0.7096 5.899,2.1289 1.575,1.4192 2.415,3.2617 2.519,5.5273 h -3.418 c -0.104,-1.3672 -0.625,-2.487 -1.562,-3.3594 -0.925,-0.8854 -2.071,-1.3281 -3.438,-1.3281 -1.836,0 -3.262,0.6641 -4.277,1.9922 -1.003,1.3151 -1.504,3.2227 -1.504,5.7227 v 0.6836 c 0,2.4348 0.501,4.3098 1.504,5.625 1.002,1.3151 2.435,1.9726 4.297,1.9726 z m 18.359,-7.2266 -2.266,2.3633 V 88 h -3.613 V 58 h 3.613 v 18.1445 l 1.934,-2.3242 6.582,-6.9531 h 4.395 l -8.223,8.8281 9.18,12.3047 h -4.239 z"
     fill="#ffffff"
     id="path44"
     sodipodi:nodetypes="ccscssccsccccscsscscccccscscscscscccccsccscccscccsscssccccscsccccscsscccscscccccscscscccccscccccccscsccccccscssscsccscsccscscscscscccccsccscccscccsscsscccscscssccsccccscsscscccccccccccccc" />
  <defs
     id="defs96">
    <filter
       id="filter0_d"
       x="95"
       y="7"
       width="411"
       height="223.351"
       filterUnits="userSpaceOnUse"
       color-interpolation-filters="sRGB">
      <feFlood
         flood-opacity="0"
         result="BackgroundImageFix"
         id="feFlood46" />
      <feColorMatrix
         in="SourceAlpha"
         type="matrix"
         values="0 0 0 0 0 0 0 0 0 0 0 0 0 0 0 0 0 0 127 0"
         id="feColorMatrix48" />
      <feOffset
         dy="21"
         id="feOffset50" />
      <feGaussianBlur
         stdDeviation="19"
         id="feGaussianBlur52" />
      <feColorMatrix
         type="matrix"
         values="0 0 0 0 0.0901961 0 0 0 0 0.164706 0 0 0 0 0.247059 0 0 0 0.13 0"
         id="feColorMatrix54" />
      <feBlend
         mode="normal"
         in2="BackgroundImageFix"
         result="effect1_dropShadow"
         id="feBlend56" />
      <feBlend
         mode="normal"
         in="SourceGraphic"
         in2="effect1_dropShadow"
         result="shape"
         id="feBlend58" />
    </filter>
    <linearGradient
       id="paint0_linear"
       x1="124.804"
       y1="336.264"
       x2="124.804"
       y2="444.584"
       gradientUnits="userSpaceOnUse">
      <stop
         stop-color="#8FD4FF"
         id="stop61" />
      <stop
         offset="1"
         stop-color="#003CFF"
         id="stop63" />
    </linearGradient>
    <linearGradient
       id="paint1_linear"
       x1="467.661"
       y1="336.264"
       x2="467.661"
       y2="444.584"
       gradientUnits="userSpaceOnUse">
      <stop
         stop-color="#A9A8FF"
         id="stop66" />
      <stop
         offset="1"
         stop-color="#6B69FF"
         id="stop68" />
    </linearGradient>
    <linearGradient
       id="paint2_linear"
       x1="467.661"
       y1="159.184"
       x2="467.661"
       y2="267.504"
       gradientUnits="userSpaceOnUse">
      <stop
         stop-color="#1FA4ED"
         id="stop71" />
      <stop
         offset="1"
         stop-color="#5F83E7"
         id="stop73" />
    </linearGradient>
    <linearGradient
       id="paint3_linear"
       x1="243.014"
       y1="426"
       x2="243.014"
       y2="534.32"
       gradientUnits="userSpaceOnUse">
      <stop
         stop-color="#FFB862"
         id="stop76" />
      <stop
         offset="0.981864"
         stop-color="#F76A1A"
         id="stop78" />
    </linearGradient>
    <linearGradient
       id="paint4_linear"
       x1="124.804"
       y1="159.184"
       x2="124.804"
       y2="267.504"
       gradientUnits="userSpaceOnUse">
      <stop
         stop-color="#F62F53"
         id="stop81" />
      <stop
         offset="1"
         stop-color="#BC313E"
         id="stop83" />
    </linearGradient>
    <linearGradient
       id="paint5_linear"
       x1="133"
       y1="124"
       x2="465.526"
       y2="16.3584"
       gradientUnits="userSpaceOnUse">
      <stop
         stop-color="#1E7AE6"
         id="stop86" />
      <stop
         offset="1"
         stop-color="#2FA5F1"
         id="stop88" />
    </linearGradient>
    <linearGradient
       id="paint6_linear"
       x1="327"
       y1="124"
       x2="321.436"
       y2="181.584"
       gradientUnits="userSpaceOnUse">
      <stop
         stop-color="#1E7AE6"
         id="stop91" />
      <stop
         offset="1"
         stop-color="#2FA5F1"
         id="stop93" />
    </linearGradient>
  </defs>
</svg>
