<svg width="24" height="19" viewBox="0 0 24 19" fill="none" xmlns="http://www.w3.org/2000/svg">
<path d="M3.23575 9.30968L4.2734 4.12142C4.39213 3.52772 5.15986 3.35336 5.52328 3.83793L8.59665 7.93576C9.08449 8.58622 8.48111 8.73793 6.4592 11.2317C3.78069 9.91798 3.06261 10.1757 3.23575 9.30968Z" fill="#FFC34D"/>
<path d="M17.5499 11.2317C15.5166 8.79155 14.8651 8.60311 15.3657 7.93575L18.439 3.83792C18.8024 3.35349 19.5701 3.52752 19.6889 4.12141L20.7265 9.30968C20.907 10.2125 20.0393 9.98429 17.5499 11.2317Z" fill="#FF9933"/>
<path d="M22.8401 6.50356L17.8133 10.2426L12.5904 1.10331C12.4561 0.867926 12.2193 0.75 11.9816 0.75C11.7443 0.75 11.5066 0.867926 11.3718 1.10331L6.14895 10.2426L1.12213 6.50356C0.592864 6.11001 -0.139024 6.60183 0.0228896 7.24013L1.94152 14.7883L3.21156 15.5525L2.29811 16.1922L2.87744 18.4712C2.95653 18.7819 3.23683 18.9999 3.55785 18.9999H20.4044C20.7254 18.9999 21.0057 18.7819 21.0848 18.4712L21.6641 16.1922L21.1063 15.4902L22.0207 14.7883L23.9394 7.24013C24.1017 6.60043 23.3684 6.11094 22.8401 6.50356Z" fill="#FFEA80"/>
<path d="M23.9395 7.24013L22.0208 14.7883L21.1064 15.4902L21.6642 16.1922L21.0849 18.4712C21.0058 18.7819 20.7255 18.9999 20.4045 18.9999H11.9817V0.75C12.2194 0.75 12.4562 0.867926 12.5905 1.10331L17.8134 10.2426L22.8402 6.50356C23.3685 6.11094 24.1018 6.60043 23.9395 7.24013Z" fill="#FFC34D"/>
<path d="M14.6888 11.6194L12.583 8.10972C12.4464 7.88229 12.2143 7.76904 11.9817 7.76904C11.7486 7.76904 11.5151 7.88322 11.3794 8.10972L9.27361 11.6194C9.14024 11.8417 9.14024 12.1197 9.27361 12.3419L11.3794 15.8516C11.5161 16.0791 11.7491 16.1923 11.9817 16.1923C12.2143 16.1918 12.4473 16.0777 12.583 15.8516L14.6888 12.3419C14.8222 12.1197 14.8222 11.8417 14.6888 11.6194Z" fill="#FF6A4D"/>
<path d="M14.6888 12.3419L12.583 15.8516C12.4473 16.0777 12.2143 16.1918 11.9817 16.1923V7.76904C12.2143 7.76904 12.4464 7.88229 12.583 8.10972L14.6888 11.6194C14.8222 11.8417 14.8222 12.1197 14.6888 12.3419Z" fill="#F03800"/>
<path d="M7.06768 15.4903C7.06768 15.8777 6.75321 16.1922 6.36574 16.1922H2.29824L1.94165 14.7883H6.36574C6.75321 14.7883 7.06768 15.1028 7.06768 15.4903Z" fill="#FFC34D"/>
<path d="M22.0208 14.7883L21.6642 16.1922H17.5967C17.2092 16.1922 16.8948 15.8777 16.8948 15.4903C16.8948 15.1028 17.2092 14.7883 17.5967 14.7883H22.0208Z" fill="#FF9933"/>
</svg>
