<svg width="50" height="48" viewBox="0 0 50 48" fill="none" xmlns="http://www.w3.org/2000/svg">
<ellipse cx="24.8606" cy="24.0723" rx="24.24" ry="23.2937" fill="white"/>
<path d="M18.369 21.2947C17.9142 20.8252 17.1286 20.7861 16.6324 21.2164C16.1362 21.6468 16.0949 22.3901 16.5497 22.8596L22.7932 29.2756C23.0412 29.5103 23.3307 29.6668 23.6615 29.6668C23.6615 29.6668 23.6615 29.6668 23.7028 29.6668C24.0336 29.6668 24.3644 29.5494 24.5711 29.3147L40.3658 14.4092C40.862 13.9397 40.862 13.1964 40.3658 12.7661C39.8696 12.3357 39.084 12.2966 38.6292 12.7661L23.7442 26.8109L18.369 21.2947Z" fill="#3692FE"/>
<path d="M40.0764 22.8986C39.3735 22.8986 38.836 23.4072 38.836 24.0723C38.836 31.349 32.5512 37.2956 24.8606 37.2956C17.1699 37.2956 10.8851 31.349 10.8851 24.0723C10.8851 16.7956 17.1699 10.849 24.8606 10.849C25.5635 10.849 26.101 10.3404 26.101 9.67537C26.101 9.0103 25.5635 8.50171 24.8606 8.50171C15.8055 8.50171 8.4043 15.5046 8.4043 24.0723C8.4043 32.64 15.8055 39.6429 24.8606 39.6429C33.9156 39.6429 41.3168 32.64 41.3168 24.0723C41.3168 23.4072 40.7793 22.8986 40.0764 22.8986Z" fill="#3692FE"/>
</svg>
