<svg width="119" height="28" viewBox="0 0 119 28" fill="none" xmlns="http://www.w3.org/2000/svg">
<g clip-path="url(#clip0)">
<path d="M31.1921 9.99878H43.2102V12.1342H38.4847V24.1383H35.8862V12.1342H31.1816V9.99878H31.1921H31.1921ZM42.6968 13.9004H44.9181V15.8761H44.96C45.0333 15.5967 45.1695 15.3273 45.3686 15.0679C45.5677 14.8084 45.8087 14.559 46.0916 14.3494C46.3745 14.1299 46.6888 13.9603 47.0346 13.8206C47.3804 13.6908 47.7366 13.621 48.0928 13.621C48.3653 13.621 48.5643 13.631 48.6691 13.6409C48.7739 13.6509 48.8787 13.6709 48.9939 13.6809V15.8562C48.8263 15.8262 48.6586 15.8063 48.4805 15.7863C48.3024 15.7664 48.1348 15.7564 47.9671 15.7564C47.569 15.7564 47.1918 15.8362 46.8355 15.9859C46.4793 16.1356 46.1754 16.3651 45.9135 16.6545C45.6515 16.9538 45.442 17.313 45.2848 17.7521C45.1276 18.1911 45.0543 18.6901 45.0543 19.2588V24.1284H42.6863V13.9004H42.6968V13.9004ZM59.8804 24.1383H57.5543V22.7114H57.5124C57.219 23.2303 56.7894 23.6394 56.2132 23.9488C55.6369 24.2581 55.0501 24.4177 54.4529 24.4177C53.0384 24.4177 52.0116 24.0885 51.3829 23.4199C50.7542 22.7513 50.4399 21.7435 50.4399 20.3964V13.9004H52.8079V20.1769C52.8079 21.0749 52.986 21.7136 53.3527 22.0828C53.709 22.452 54.2224 22.6416 54.872 22.6416C55.3749 22.6416 55.7836 22.5717 56.1189 22.422C56.4541 22.2724 56.7266 22.0828 56.9256 21.8333C57.1352 21.5938 57.2819 21.2945 57.3762 20.9552C57.4705 20.6159 57.5124 20.2467 57.5124 19.8476V13.9104H59.8804V24.1383V24.1383ZM63.9144 20.8554C63.9877 21.514 64.2496 21.973 64.7002 22.2424C65.1612 22.5019 65.7061 22.6416 66.3452 22.6416C66.5652 22.6416 66.8167 22.6216 67.0996 22.5917C67.3825 22.5617 67.6549 22.4919 67.8959 22.4021C68.1474 22.3123 68.3465 22.1726 68.5141 21.993C68.6713 21.8133 68.7446 21.5838 68.7342 21.2945C68.7237 21.0051 68.6084 20.7656 68.3989 20.586C68.1893 20.3964 67.9274 20.2567 67.6026 20.137C67.2777 20.0272 66.911 19.9274 66.4919 19.8476C66.0728 19.7678 65.6537 19.6779 65.2241 19.5881C64.784 19.4983 64.3544 19.3786 63.9458 19.2489C63.5372 19.1191 63.1704 18.9395 62.8456 18.71C62.5208 18.4905 62.2589 18.2011 62.0703 17.8519C61.8712 17.5026 61.7769 17.0736 61.7769 16.5547C61.7769 15.9959 61.9236 15.5369 62.2065 15.1577C62.4894 14.7785 62.8561 14.4791 63.2857 14.2496C63.7258 14.0201 64.2077 13.8605 64.7421 13.7607C65.2765 13.6709 65.7899 13.621 66.2719 13.621C66.8272 13.621 67.3616 13.6809 67.8645 13.7906C68.3674 13.9004 68.8285 14.08 69.2371 14.3394C69.6457 14.5889 69.981 14.9182 70.2534 15.3173C70.5259 15.7165 70.6935 16.2054 70.7669 16.7742H68.2941C68.1788 16.2354 67.9274 15.8661 67.5187 15.6865C67.1101 15.4969 66.6386 15.4071 66.1147 15.4071C65.9471 15.4071 65.748 15.4171 65.5175 15.4471C65.2869 15.477 65.0774 15.5269 64.8678 15.5967C64.6688 15.6666 64.5011 15.7763 64.3544 15.916C64.2182 16.0557 64.1449 16.2354 64.1449 16.4649C64.1449 16.7443 64.2496 16.9638 64.4487 17.1334C64.6478 17.3031 64.9097 17.4428 65.2346 17.5625C65.5594 17.6723 65.9261 17.772 66.3452 17.8519C66.7643 17.9317 67.1939 18.0215 67.634 18.1113C68.0636 18.2011 68.4827 18.3209 68.9018 18.4506C69.3209 18.5803 69.6876 18.7599 70.0125 18.9894C70.3373 19.2189 70.5992 19.4983 70.7983 19.8376C70.9974 20.1769 71.1021 20.6059 71.1021 21.1049C71.1021 21.7136 70.9555 22.2225 70.6621 22.6515C70.3687 23.0706 69.9915 23.4199 69.5305 23.6793C69.0694 23.9388 68.5456 24.1383 67.9798 24.2581C67.414 24.3778 66.8482 24.4377 66.2928 24.4377C65.6118 24.4377 64.9831 24.3678 64.4068 24.2182C63.8305 24.0685 63.3276 23.849 62.9085 23.5596C62.4894 23.2602 62.1541 22.891 61.9131 22.452C61.6721 22.0129 61.5464 21.4841 61.5254 20.8754H63.9144V20.8554ZM71.7308 13.9004H73.5225V10.827H75.8905V13.9004H78.028V15.5868H75.8905V21.055C75.8905 21.2945 75.901 21.494 75.9219 21.6736C75.9429 21.8433 75.9953 21.993 76.0686 22.1127C76.142 22.2324 76.2572 22.3223 76.4144 22.3821C76.5716 22.442 76.7706 22.4719 77.0431 22.4719C77.2107 22.4719 77.3784 22.4719 77.546 22.462C77.7137 22.452 77.8813 22.432 78.0489 22.3921V24.1383C77.787 24.1683 77.5251 24.1882 77.2841 24.2182C77.0326 24.2481 76.7811 24.2581 76.5192 24.2581C75.8905 24.2581 75.3876 24.1982 75.0104 24.0885C74.6332 23.9787 74.3293 23.8091 74.1198 23.5895C73.8997 23.37 73.7635 23.1006 73.6797 22.7713C73.6063 22.442 73.554 22.0628 73.5435 21.6437V15.6067H71.7518V13.9004H71.7308ZM79.7044 13.9004H81.9467V15.2874H81.9886C82.3239 14.6887 82.7849 14.2696 83.3822 14.0101C83.9794 13.7507 84.6185 13.621 85.3205 13.621C86.1693 13.621 86.9027 13.7607 87.5314 14.0501C88.16 14.3295 88.6839 14.7186 89.103 15.2175C89.5222 15.7165 89.826 16.2952 90.0356 16.9538C90.2451 17.6124 90.3499 18.3209 90.3499 19.0693C90.3499 19.7578 90.2556 20.4263 90.067 21.065C89.8784 21.7136 89.5955 22.2823 89.2183 22.7813C88.8411 23.2802 88.3591 23.6694 87.7724 23.9687C87.1856 24.2681 86.5045 24.4177 85.7082 24.4177C85.3625 24.4177 85.0167 24.3878 84.6709 24.3279C84.3252 24.2681 83.9899 24.1683 83.6755 24.0386C83.3612 23.9088 83.0573 23.7392 82.7954 23.5297C82.523 23.3201 82.3029 23.0806 82.1143 22.8112H82.0724V27.9202H79.7044V13.9004V13.9004ZM87.9819 19.0293C87.9819 18.5703 87.919 18.1213 87.7933 17.6822C87.6676 17.2432 87.479 16.864 87.2275 16.5247C86.976 16.1855 86.6617 15.916 86.295 15.7165C85.9178 15.5169 85.4882 15.4071 85.0062 15.4071C84.0108 15.4071 83.2564 15.7364 82.7535 16.395C82.2505 17.0536 81.9991 17.9317 81.9991 19.0293C81.9991 19.5482 82.0619 20.0272 82.1982 20.4662C82.3344 20.9053 82.523 21.2845 82.7954 21.6038C83.0573 21.9231 83.3717 22.1726 83.7384 22.3522C84.1051 22.5418 84.5347 22.6316 85.0167 22.6316C85.5615 22.6316 86.0121 22.5218 86.3893 22.3123C86.7665 22.1027 87.0703 21.8233 87.3113 21.494C87.5523 21.1548 87.7304 20.7756 87.8352 20.3465C87.9295 19.9174 87.9819 19.4784 87.9819 19.0293ZM92.1626 9.99878H94.5306V12.1342H92.1626V9.99878V9.99878ZM92.1626 13.9004H94.5306V24.1383H92.1626V13.9004ZM96.6471 9.99878H99.0151V24.1383H96.6471V9.99878V9.99878ZM106.276 24.4177C105.417 24.4177 104.652 24.278 103.982 24.0086C103.311 23.7392 102.745 23.36 102.274 22.891C101.813 22.4121 101.456 21.8433 101.215 21.1847C100.974 20.5261 100.849 19.7977 100.849 19.0094C100.849 18.2311 100.974 17.5126 101.215 16.854C101.456 16.1954 101.813 15.6267 102.274 15.1477C102.735 14.6687 103.311 14.2995 103.982 14.0301C104.652 13.7607 105.417 13.621 106.276 13.621C107.135 13.621 107.9 13.7607 108.571 14.0301C109.241 14.2995 109.807 14.6787 110.279 15.1477C110.74 15.6267 111.096 16.1954 111.337 16.854C111.578 17.5126 111.704 18.2311 111.704 19.0094C111.704 19.7977 111.578 20.5261 111.337 21.1847C111.096 21.8433 110.74 22.4121 110.279 22.891C109.818 23.37 109.241 23.7392 108.571 24.0086C107.9 24.278 107.135 24.4177 106.276 24.4177ZM106.276 22.6316C106.8 22.6316 107.261 22.5218 107.649 22.3123C108.036 22.1027 108.351 21.8233 108.602 21.4841C108.854 21.1448 109.032 20.7556 109.158 20.3265C109.273 19.8975 109.336 19.4584 109.336 19.0094C109.336 18.5703 109.273 18.1413 109.158 17.7022C109.042 17.2631 108.854 16.884 108.602 16.5447C108.351 16.2054 108.036 15.936 107.649 15.7265C107.261 15.5169 106.8 15.4071 106.276 15.4071C105.752 15.4071 105.291 15.5169 104.904 15.7265C104.516 15.936 104.202 16.2154 103.95 16.5447C103.699 16.884 103.521 17.2631 103.395 17.7022C103.28 18.1413 103.217 18.5703 103.217 19.0094C103.217 19.4584 103.28 19.8975 103.395 20.3265C103.51 20.7556 103.699 21.1448 103.95 21.4841C104.202 21.8233 104.516 22.1027 104.904 22.3123C105.291 22.5318 105.752 22.6316 106.276 22.6316ZM112.395 13.9004H114.187V10.827H116.555V13.9004H118.692V15.5868H116.555V21.055C116.555 21.2945 116.565 21.494 116.586 21.6736C116.607 21.8433 116.66 21.993 116.733 22.1127C116.806 22.2324 116.922 22.3223 117.079 22.3821C117.236 22.442 117.435 22.4719 117.707 22.4719C117.875 22.4719 118.043 22.4719 118.21 22.462C118.378 22.452 118.546 22.432 118.713 22.3921V24.1383C118.451 24.1683 118.189 24.1882 117.948 24.2182C117.697 24.2481 117.446 24.2581 117.184 24.2581C116.555 24.2581 116.052 24.1982 115.675 24.0885C115.298 23.9787 114.994 23.8091 114.784 23.5895C114.564 23.37 114.428 23.1006 114.344 22.7713C114.271 22.442 114.218 22.0628 114.208 21.6437V15.6067H112.416V13.9004H112.395V13.9004Z" fill="white"/>
<path d="M28.4263 9.99873H17.5713L14.2184 0.159912L10.855 9.99873L0 9.98875L8.79089 16.0757L5.42751 25.9045L14.2184 19.8276L22.9988 25.9045L19.6459 16.0757L28.4263 9.99873V9.99873Z" fill="white"/>
<path d="M20.3997 18.3009L19.6453 16.0757L14.2178 19.8276L20.3997 18.3009Z" fill="#064F29"/>
</g>
<defs>
<clipPath id="clip0">
<rect width="118.829" height="28" fill="white"/>
</clipPath>
</defs>
</svg>
