<svg width="30" height="21" viewBox="0 0 30 21" fill="none" xmlns="http://www.w3.org/2000/svg">
<path d="M29.3751 3.28597C29.0293 2.0011 28.0163 0.988308 26.7317 0.64232C24.3846 0 14.9962 0 14.9962 0C14.9962 0 5.60812 0 3.26103 0.617836C2.0011 0.963595 0.963366 2.00133 0.617607 3.28597C0 5.63283 0 10.5 0 10.5C0 10.5 0 15.3917 0.617607 17.714C0.963595 18.9987 1.97639 20.0117 3.26126 20.3577C5.63283 21 14.9965 21 14.9965 21C14.9965 21 24.3846 21 26.7317 20.3822C28.0166 20.0364 29.0293 19.0234 29.3753 17.7387C29.9565 15.53 29.9908 11.0895 29.9928 10.5739C29.9929 10.5402 29.993 10.5093 29.9931 10.4756C29.9935 9.95887 29.9799 5.49499 29.3751 3.28597Z" fill="#E60000"/>
<path d="M12.0068 14.9964L19.8138 10.4999L12.0068 6.00342V14.9964Z" fill="white"/>
</svg>
