<svg width="36" height="36" viewBox="0 0 36 36" fill="none" xmlns="http://www.w3.org/2000/svg">
<path fill-rule="evenodd" clip-rule="evenodd" d="M17.3912 35.0171C26.9392 35.0171 34.6795 27.4021 34.6795 18.0086C34.6795 8.61502 26.9392 1 17.3912 1C7.84289 1 0.102539 8.61502 0.102539 18.0086C0.102539 27.4021 7.84289 35.0171 17.3912 35.0171Z" fill="#3692FE"/>
<path d="M13.32 11.6667C13.32 12.5873 12.58 13.3333 11.6667 13.3333C10.7533 13.3333 10.0133 12.5873 10.0133 11.6667C10.0133 10.7467 10.7533 10 11.6667 10C12.58 10 13.32 10.7467 13.32 11.6667ZM13.3333 14.6667H10V25.3333H13.3333V14.6667ZM18.6547 14.6667H15.3427V25.3333H18.6553V19.734C18.6553 16.6207 22.6747 16.366 22.6747 19.734V25.3333H26V18.5793C26 13.326 20.052 13.5173 18.6547 16.1033V14.6667Z" fill="white"/>
</svg>
