<svg width="36" height="36" viewBox="0 0 36 36" fill="none" xmlns="http://www.w3.org/2000/svg">
<path fill-rule="evenodd" clip-rule="evenodd" d="M17.7371 1.00098C8.18883 1.00098 0.448486 8.616 0.448486 18.0095C0.448486 27.4031 8.18883 35.0181 17.7371 35.0181C27.2852 35.0181 35.0255 27.4031 35.0255 18.0095C35.0255 8.616 27.2852 1.00098 17.7371 1.00098Z" fill="#3692FE"/>
<path d="M17.2193 14.8248L17.2555 15.4133L16.6508 15.3412C14.4499 15.0649 12.5272 14.1281 10.8947 12.5547L10.0965 11.7739L9.891 12.3504C9.45558 13.6356 9.73368 14.9928 10.6407 15.9056C11.1245 16.4101 11.0156 16.4822 10.1812 16.182C9.89099 16.0858 9.63699 16.0138 9.61274 16.0498C9.52819 16.134 9.8184 17.227 10.0481 17.6593C10.3626 18.2599 11.0035 18.8484 11.7049 19.1968L12.2975 19.4729L11.5961 19.4849C10.9188 19.4849 10.8947 19.497 10.9671 19.7493C11.209 20.5299 12.1644 21.3588 13.2286 21.7191L13.9783 21.9713L13.3252 22.3555C12.3579 22.9081 11.2211 23.2204 10.0844 23.2443C9.54014 23.2564 9.09277 23.3045 9.09277 23.3405C9.09277 23.4606 10.5681 24.1332 11.4268 24.3975C14.0025 25.1781 17.062 24.8418 19.3596 23.5087C20.9923 22.5599 22.6248 20.6741 23.3866 18.8484C23.7977 17.8754 24.2091 16.0979 24.2091 15.2451C24.2091 14.6926 24.2452 14.6205 24.9223 13.9599C25.3216 13.5756 25.6963 13.1552 25.7689 13.0351C25.8899 12.807 25.8778 12.807 25.2612 13.011C24.2331 13.3714 24.0881 13.3234 24.596 12.7829C24.9709 12.3984 25.2612 11.5696 25.2612 11.3655C25.2612 11.3655 25.2368 11.5216 25.0313 11.6298C24.8136 11.75 24.3299 11.93 23.9672 12.0381L23.3141 12.2423L22.7216 11.846C22.395 11.6298 21.9355 11.3896 21.6937 11.3176C21.0768 11.1493 20.1336 11.1734 19.5775 11.3655C18.0658 11.9061 17.1103 13.2993 17.2193 14.8248Z" fill="white"/>
</svg>
