<svg width="35" height="35" viewBox="0 0 35 35" fill="none" xmlns="http://www.w3.org/2000/svg">
<path fill-rule="evenodd" clip-rule="evenodd" d="M17.2886 34.0171C26.8367 34.0171 34.577 26.4021 34.577 17.0086C34.577 7.61502 26.8367 0 17.2886 0C7.74035 0 0 7.61502 0 17.0086C0 26.4021 7.74035 34.0171 17.2886 34.0171Z" fill="#3692FE"/>
<path d="M7 11C8.7 11 10.3978 11 12.1178 11C12.1178 11.2121 12.12 11.4242 12.1133 11.6341C12.1133 11.6536 12.0489 11.6774 12.0089 11.6882C11.8178 11.7423 11.6178 11.7769 11.4356 11.8483C11.2911 11.9046 11.1533 11.9955 11.0356 12.095C10.8111 12.2855 10.7533 12.5906 10.8711 12.8568C11.6267 14.5534 12.3844 16.2522 13.1422 17.9488C13.6067 18.9898 14.0689 20.0307 14.5333 21.0694C14.5511 21.1084 14.5689 21.1452 14.5933 21.1993C14.62 21.156 14.6378 21.13 14.6533 21.1041C15.3444 19.8467 16.0333 18.5872 16.7267 17.3321C16.7689 17.2542 16.7733 17.1957 16.7356 17.1135C16.2222 15.9968 15.7178 14.8759 15.2 13.7592C14.9778 13.2809 14.72 12.8178 14.4956 12.3396C14.3378 12.0063 14.0733 11.8202 13.72 11.7596C13.4222 11.7077 13.1178 11.6903 12.8178 11.6665C12.7244 11.66 12.7 11.6319 12.7022 11.5453C12.7089 11.3701 12.7044 11.1926 12.7044 11.0173C14.32 11.0173 15.92 11.0173 17.5489 11.0173C17.5489 11.2207 17.5533 11.4112 17.5444 11.6016C17.5444 11.6254 17.48 11.6557 17.4422 11.6665C17.28 11.7141 17.1111 11.7444 16.9556 11.805C16.78 11.8743 16.6711 12.0128 16.6578 12.2032C16.6533 12.2617 16.66 12.3287 16.6844 12.3807C17.1222 13.3307 17.5622 14.2786 18.0044 15.2264C18.0111 15.2394 18.02 15.2502 18.0311 15.2697C18.0444 15.2567 18.0556 15.2502 18.06 15.2394C18.4889 14.35 18.9244 13.4627 19.3444 12.569C19.5244 12.1837 19.3711 11.8635 18.9511 11.7553C18.7178 11.6947 18.4711 11.6838 18.2289 11.6514C18.2 11.6471 18.1711 11.6471 18.1289 11.6427C18.1289 11.4371 18.1289 11.238 18.1289 11.0216C19.5578 11.0216 20.9889 11.0216 22.4267 11.0216C22.4267 11.2229 22.4267 11.4307 22.4267 11.6168C22.1422 11.6817 21.8644 11.7271 21.6 11.8094C21.2444 11.9219 20.9689 12.1383 20.7667 12.4543C20.1244 13.4562 19.6156 14.5253 19.1133 15.5965C18.9956 15.8454 18.8756 16.0921 18.7644 16.3431C18.7422 16.3929 18.7378 16.4665 18.76 16.5141C19.3911 17.9077 20.0267 19.2992 20.6622 20.6907C20.6778 20.7253 20.6978 20.76 20.7244 20.8119C20.8378 20.5566 20.9444 20.3185 21.0489 20.0805C22.1511 17.6069 23.2511 15.1312 24.3578 12.6598C24.4044 12.5581 24.3956 12.4824 24.3356 12.3915C24.1333 12.0691 23.8222 11.8981 23.4733 11.7791C23.3378 11.7336 23.1978 11.699 23.04 11.6557C23.04 11.4458 23.04 11.2316 23.04 11C23.0667 11 23.1067 11 23.1467 11C24.3933 11.0108 25.6422 11.0195 26.8889 11.0281C26.9267 11.0281 26.9622 11.0238 27 11.0216C27 11.2445 27 11.4696 27 11.6925C26.4733 11.8007 26.0711 12.0864 25.8044 12.5343C25.6667 12.7637 25.5711 13.0148 25.4622 13.2593C24.46 15.5013 23.46 17.7433 22.4578 19.9852C21.8778 21.2858 21.2956 22.5865 20.7178 23.8892C20.6822 23.9693 20.64 23.9931 20.5533 23.9931C20.3422 23.9888 20.1311 23.9909 19.92 23.9996C19.8422 24.0039 19.8089 23.9736 19.7822 23.9087C19.2622 22.712 18.7422 21.5152 18.22 20.3185C17.9622 19.7277 17.7044 19.1391 17.4467 18.5505C17.4356 18.5266 17.4244 18.505 17.4022 18.4639C17.3756 18.5115 17.3533 18.5483 17.3333 18.5829C16.3956 20.3531 15.4578 22.1233 14.5244 23.8957C14.4822 23.9758 14.4356 24.0018 14.3467 23.9996C14.1356 23.9931 13.9244 23.9909 13.7133 23.9996C13.62 24.0039 13.5756 23.9736 13.5378 23.8914C13.0044 22.7011 12.4578 21.5131 11.9356 20.3185C11.2222 18.6933 10.5356 17.0572 9.81556 15.4342C9.52 14.7677 9.2 14.1076 8.84444 13.4692C8.47333 12.7983 7.93778 12.2552 7.26 11.8548C7.18 11.8072 7.08667 11.7747 7 11.7358C7 11.4912 7 11.2445 7 11Z" fill="white"/>
</svg>
